<svg width="260" height="69" viewBox="0 0 260 69" fill="none" xmlns="http://www.w3.org/2000/svg">
<path d="M17.792 64.512C16.7253 64.512 15.6373 64.2773 14.528 63.808C13.4613 63.296 12.928 62.4853 12.928 61.376V31.424C12.928 30.0587 13.2693 29.12 13.952 28.608C14.6347 28.096 15.1893 27.776 15.616 27.648H3.264C2.24 27.648 1.472 27.2 0.96 26.304C0.490667 25.3653 0.256 24.4053 0.256 23.424C0.256 22.3573 0.512 21.3973 1.024 20.544C1.536 19.648 2.28267 19.2 3.264 19.2H31.872C32.8533 19.2 33.6 19.648 34.112 20.544C34.624 21.3973 34.88 22.3573 34.88 23.424C34.88 24.4053 34.624 25.3653 34.112 26.304C33.6427 27.2 32.896 27.648 31.872 27.648H22.144V61.376C22.144 62.4427 21.696 63.232 20.8 63.744C19.9467 64.256 18.944 64.512 17.792 64.512ZM45.024 64.512C40.4587 64.512 36.8533 63.2107 34.208 60.608C31.5627 58.0053 30.24 53.8027 30.24 48C30.24 42.1547 31.5627 37.952 34.208 35.392C36.8533 32.7893 40.4587 31.488 45.024 31.488C49.5893 31.488 53.1947 32.7893 55.84 35.392C58.4853 37.952 59.808 42.1547 59.808 48C59.808 53.8027 58.4853 58.0053 55.84 60.608C53.1947 63.2107 49.5893 64.512 45.024 64.512ZM45.024 56.832C46.2187 56.832 47.2213 56.5973 48.032 56.128C48.8427 55.616 49.4613 54.72 49.888 53.44C50.3573 52.16 50.592 50.3467 50.592 48C50.592 45.6533 50.3573 43.84 49.888 42.56C49.4613 41.28 48.8427 40.4053 48.032 39.936C47.2213 39.424 46.2187 39.168 45.024 39.168C43.872 39.168 42.8693 39.424 42.016 39.936C41.2053 40.4053 40.5653 41.28 40.096 42.56C39.6693 43.84 39.456 45.6533 39.456 48C39.456 50.3467 39.6693 52.16 40.096 53.44C40.5653 54.72 41.2053 55.616 42.016 56.128C42.8693 56.5973 43.872 56.832 45.024 56.832ZM79.4705 64.512C74.7772 64.512 71.0652 63.0187 68.3345 60.032C65.6465 57.0453 64.3025 52.672 64.3025 46.912C64.3025 43.072 64.8572 40.0213 65.9665 37.76C67.0758 35.4987 68.6118 33.8987 70.5745 32.96C72.5798 31.9787 74.8412 31.488 77.3585 31.488C79.6198 31.488 81.4545 31.7653 82.8625 32.32C84.2705 32.8747 85.3798 33.8133 86.1905 35.136C85.8918 34.24 85.6572 33.408 85.4865 32.64C85.3585 31.8293 85.2518 30.8907 85.1665 29.824C85.1238 28.7573 85.1025 27.392 85.1025 25.728V20.224C85.1025 16.896 86.5318 15.232 89.3905 15.232C92.5052 15.232 94.0625 16.896 94.0625 20.224V47.296C94.0625 53.056 92.7825 57.3653 90.2225 60.224C87.6625 63.0827 84.0785 64.512 79.4705 64.512ZM79.0225 56.832C80.8145 56.832 82.2012 56.192 83.1825 54.912C84.2065 53.632 84.7185 51.2427 84.7185 47.744C84.7185 45.3973 84.4838 43.6267 84.0145 42.432C83.5878 41.1947 82.9478 40.3413 82.0945 39.872C81.2412 39.4027 80.2172 39.168 79.0225 39.168C77.8278 39.168 76.8038 39.4027 75.9505 39.872C75.0972 40.3413 74.4358 41.1947 73.9665 42.432C73.5398 43.6267 73.3265 45.3973 73.3265 47.744C73.3265 51.2427 73.8172 53.632 74.7985 54.912C75.8225 56.192 77.2305 56.832 79.0225 56.832ZM114.899 64.512C110.334 64.512 106.728 63.2107 104.083 60.608C101.438 58.0053 100.115 53.8027 100.115 48C100.115 42.1547 101.438 37.952 104.083 35.392C106.728 32.7893 110.334 31.488 114.899 31.488C119.464 31.488 123.07 32.7893 125.715 35.392C128.36 37.952 129.683 42.1547 129.683 48C129.683 53.8027 128.36 58.0053 125.715 60.608C123.07 63.2107 119.464 64.512 114.899 64.512ZM114.899 56.832C116.094 56.832 117.096 56.5973 117.907 56.128C118.718 55.616 119.336 54.72 119.763 53.44C120.232 52.16 120.467 50.3467 120.467 48C120.467 45.6533 120.232 43.84 119.763 42.56C119.336 41.28 118.718 40.4053 117.907 39.936C117.096 39.424 116.094 39.168 114.899 39.168C113.747 39.168 112.744 39.424 111.891 39.936C111.08 40.4053 110.44 41.28 109.971 42.56C109.544 43.84 109.331 45.6533 109.331 48C109.331 50.3467 109.544 52.16 109.971 53.44C110.44 54.72 111.08 55.616 111.891 56.128C112.744 56.5973 113.747 56.832 114.899 56.832Z" fill="#5E5E5E"/>
<path d="M138.448 64.512C136.784 64.512 135.589 64.064 134.864 63.168C134.181 62.272 133.84 61.056 133.84 59.52V20.224C133.84 18.688 134.181 17.472 134.864 16.576C135.589 15.68 136.784 15.232 138.448 15.232C140.112 15.232 141.285 15.68 141.968 16.576C142.693 17.472 143.056 18.688 143.056 20.224V44.032C145.317 42.6667 147.323 41.1307 149.072 39.424C150.821 37.6747 152.016 36.0107 152.656 34.432C153.253 32.9813 154.107 32 155.216 31.488C156.325 30.976 157.541 31.04 158.864 31.68C160.699 32.576 161.552 33.9413 161.424 35.776C161.381 37.312 160.677 39.04 159.312 40.96C157.989 42.8373 156.347 44.4587 154.384 45.824C156.859 46.6773 158.843 48.2347 160.336 50.496C161.872 52.7147 162.64 55.936 162.64 60.16C162.64 63.0613 161.125 64.512 158.096 64.512C154.981 64.512 153.424 63.0613 153.424 60.16C153.424 57.0453 152.933 54.7627 151.952 53.312C150.971 51.8613 149.669 51.136 148.048 51.136C146.555 51.136 145.339 51.6907 144.4 52.8C143.504 53.9093 143.056 55.8293 143.056 58.56C143.056 61.0347 142.693 62.656 141.968 63.424C141.243 64.1493 140.069 64.512 138.448 64.512ZM180.548 64.512C176.281 64.512 172.953 63.5307 170.564 61.568C168.174 59.5627 166.98 56.9813 166.98 53.824C166.98 50.112 168.537 47.424 171.652 45.76C174.809 44.096 179.417 43.52 185.476 44.032C185.177 42.0693 184.558 40.7467 183.62 40.064C182.681 39.3387 181.55 38.976 180.228 38.976C179.161 38.976 178.265 39.04 177.54 39.168C176.857 39.2533 176.217 39.36 175.62 39.488C175.022 39.616 174.297 39.68 173.444 39.68C172.292 39.68 171.374 39.488 170.692 39.104C170.009 38.6773 169.668 37.8453 169.668 36.608C169.668 34.8587 170.414 33.5787 171.908 32.768C173.444 31.9147 175.854 31.488 179.14 31.488C184.345 31.488 188.206 32.9813 190.724 35.968C193.241 38.912 194.5 42.8587 194.5 47.808C194.5 53.5253 193.454 57.7493 191.364 60.48C189.316 63.168 185.71 64.512 180.548 64.512ZM176.196 53.824C176.196 56.256 177.838 57.472 181.124 57.472C182.19 57.472 183.022 57.28 183.62 56.896C184.217 56.512 184.644 55.744 184.9 54.592C185.198 53.44 185.412 51.712 185.54 49.408C185.326 49.6213 185.049 49.7707 184.708 49.856C184.366 49.9413 184.025 49.984 183.684 49.984C180.868 49.984 178.905 50.2613 177.796 50.816C176.729 51.328 176.196 52.3307 176.196 53.824ZM205.262 64.512C202.19 64.512 200.654 63.0613 200.654 60.16V35.904C200.654 32.96 202.19 31.488 205.262 31.488C206.798 31.488 207.907 31.8293 208.59 32.512C209.273 33.152 209.614 34.2187 209.614 35.712C210.382 34.304 211.47 33.2587 212.878 32.576C214.329 31.8507 216.014 31.488 217.934 31.488C221.603 31.488 223.438 33.088 223.438 36.288C223.438 37.4827 222.99 38.3787 222.094 38.976C221.198 39.5733 219.726 39.872 217.678 39.872C215.673 39.872 214.094 40.064 212.942 40.448C211.79 40.7893 210.979 41.4507 210.51 42.432C210.083 43.3707 209.87 44.736 209.87 46.528V60.16C209.87 63.0613 208.334 64.512 205.262 64.512ZM238.587 64.512C234.021 64.512 230.416 63.2107 227.771 60.608C225.125 58.0053 223.803 53.8027 223.803 48C223.803 42.1547 225.125 37.952 227.771 35.392C230.416 32.7893 234.021 31.488 238.587 31.488C243.152 31.488 246.757 32.7893 249.403 35.392C252.048 37.952 253.371 42.1547 253.371 48C253.371 53.8027 252.048 58.0053 249.403 60.608C246.757 63.2107 243.152 64.512 238.587 64.512ZM238.587 56.832C239.781 56.832 240.784 56.5973 241.595 56.128C242.405 55.616 243.024 54.72 243.451 53.44C243.92 52.16 244.155 50.3467 244.155 48C244.155 45.6533 243.92 43.84 243.451 42.56C243.024 41.28 242.405 40.4053 241.595 39.936C240.784 39.424 239.781 39.168 238.587 39.168C237.435 39.168 236.432 39.424 235.579 39.936C234.768 40.4053 234.128 41.28 233.659 42.56C233.232 43.84 233.019 45.6533 233.019 48C233.019 50.3467 233.232 52.16 233.659 53.44C234.128 54.72 234.768 55.616 235.579 56.128C236.432 56.5973 237.435 56.832 238.587 56.832Z" fill="#B47AEA"/>
</svg>
