<svg width="83" height="78" viewBox="0 0 83 78" fill="none" xmlns="http://www.w3.org/2000/svg">
<path d="M17.7745 46.5821C21.5247 46.9082 24.6 48.3716 27.0005 50.9723C29.7451 53.7476 31.1174 57.4149 31.1174 61.9743C31.1174 66.5337 29.7451 70.3002 27.0005 73.2737C24.2559 76.049 20.6292 77.4366 16.1202 77.4366C11.6113 77.4366 7.88654 75.8507 4.94593 72.679C2.00532 69.5072 0.535011 64.8487 0.535011 58.7034C0.535011 50.9723 2.8875 41.9526 7.59248 31.6444C11.9921 22.0051 17.9346 12.3658 25.4199 2.72651C25.9394 2.05761 26.4662 1.38871 27.0005 0.719804L33.4699 6.36951C27.3926 14.4971 22.8837 21.8318 19.943 28.3735C17.6033 33.7813 16.1184 38.973 15.4883 43.9486C15.3793 44.8096 15.2959 45.664 15.2381 46.512H16.1202C16.6855 46.512 17.2369 46.5354 17.7745 46.5821Z" fill="#900C0D"/>
<path d="M67.1748 46.61C70.7929 46.9853 73.7709 48.4394 76.1087 50.9723C79.0493 53.7476 80.5196 57.4149 80.5196 61.9743C80.5196 66.5337 79.0493 70.3002 76.1087 73.2737C73.3642 76.049 69.7374 77.4366 65.2285 77.4366C60.7195 77.4366 56.9947 75.8507 54.0541 72.679C51.1135 69.5072 49.6432 64.8487 49.6432 58.7034C49.6432 50.9723 51.9957 41.9526 56.7007 31.6444C61.2834 22.0057 67.323 12.367 74.8196 2.72825C75.3403 2.05877 75.868 1.38928 76.4028 0.719804L82.5781 6.36951C76.5008 14.4971 72.0899 21.8318 69.3453 28.3735C67.0056 33.7813 65.5207 38.973 64.8906 43.9486C64.7816 44.8096 64.6982 45.664 64.6403 46.512H65.2285C65.8966 46.512 66.5454 46.5447 67.1748 46.61Z" fill="#900C0D"/>
</svg>
